<svg id="Layer_1" data-name="Layer 1" xmlns="http://www.w3.org/2000/svg" viewBox="0 0 280.24 232.46">
<defs>
<style>.cls-1{fill:#0b7c3f;}.cls-2{fill:#3ca949;}.cls-3{fill:#6dbb44;}.cls-4{fill:#9cc84e;}</style>
</defs>
<path class="cls-1" d="M-102.08,168.14s-87.23,2.6-115.06-40.5h-.07c-.22,2.92-.44,5.61-.65,7.9-1.44,15.4-.72,56.4,23.91,72.2s47.17,12.3,66.92-4.8,24.87-17.6,24.87-17.6v70.4h.16v-87.6Z" transform="translate(382.24 -86.25)"/>
<path class="cls-2" d="M-102,168.54V86.72l-112.5-.47-2.71,41.39C-190.77,168.59-109.91,168.67-102,168.54Z" transform="translate(382.24 -86.25)"/>
<path class="cls-3" d="M-126.87,202.85c-19.75,17.1-42.29,20.6-66.92,4.8s-25.35-56.8-23.91-72.2,3.2-49.2,3.2-49.2h-73.24s-6.88,108.4,49.09,122.3,101.71,9.2,136.65,37.7v-61S-107.11,185.75-126.87,202.85Z" transform="translate(382.24 -86.25)"/>
<path class="cls-4" d="M-238.65,208.55c-56-13.9-49.09-122.3-49.09-122.3h-94.5c31.89,5.15,74.53,25,94,90.8,4.71,16,13.59,29.5,25.58,37.7,13.28,9.1,33.83,18.1,65.25,21.6C-128,244-103.53,314.09-102,318.71V246.25C-136.94,217.75-182.68,222.45-238.65,208.55Z" transform="translate(382.24 -86.25)"/>
</svg>